<?xml version="1.0" standalone="no"?><!DOCTYPE svg PUBLIC "-//W3C//DTD SVG 1.1//EN" "http://www.w3.org/Graphics/SVG/1.1/DTD/svg11.dtd"><svg t="1544405681420" class="icon" style="" viewBox="0 0 1024 1024" version="1.1" xmlns="http://www.w3.org/2000/svg" p-id="7857" xmlns:xlink="http://www.w3.org/1999/xlink" width="32" height="32"><defs><style type="text/css"></style></defs><path d="M511.612121 51.717172C318.319192 51.717172 161.616162 208.420202 161.616162 401.713131c0 67.749495 19.264646 130.973737 52.622222 184.50101 1.163636 2.19798 2.327273 4.266667 3.490909 6.335354 37.365657 62.319192 121.923232 137.955556 177.260606 208.290909 70.981818 90.375758 109.89899 169.115152 109.89899 169.115152 1.680808 1.551515 3.749495 2.327273 5.947475 2.585858 2.715152 0.129293 5.430303-0.646465 7.49899-2.585858 0 0 31.547475-74.084848 97.616161-156.832324 59.862626-75.119192 152.824242-155.927273 189.543434-220.573737 1.034343-1.810101 1.939394-3.490909 2.844445-5.30101 33.745455-53.785859 53.268687-117.39798 53.268687-185.535354C861.478788 208.420202 704.905051 51.717172 511.612121 51.717172z" fill="#E71F19" p-id="7858"></path><path d="M432.872727 215.660606c-19.911111 50.812121-39.951515 91.668687-59.862626 122.828283 14.222222-1.680808 28.573737-3.878788 42.79596-6.464647l24.824242-53.527272 35.555556 13.317171C441.018182 364.606061 412.444444 416.193939 390.464646 446.707071c21.721212-5.688889 42.79596-12.670707 63.353536-20.945455v36.331313c-40.210101 15.127273-76.929293 25.082828-110.028283 29.99596l-10.731313-36.848485c6.852525-3.10303 12.8-6.981818 17.971717-11.507071 12.282828-14.222222 27.79798-39.175758 46.674748-74.860606l-62.060607 9.438384-9.826262-36.848485c6.593939-2.585859 12.153535-7.49899 16.678788-14.99798 20.29899-38.270707 37.753535-80.032323 52.622222-125.414141l37.753535 14.610101z m38.917172 331.636364c-41.632323 15.127273-86.755556 27.280808-135.240404 36.331313l-5.947475-42.79596c52.492929-8.274747 99.555556-19.911111 141.187879-35.038384v41.503031z m113.00202-340.557576c-4.266667 14.868687-8.016162 26.246465-11.119192 34.262626h117.656566v32.969697c-17.454545 34.00404-38.012121 63.224242-61.672727 87.789899 28.185859 18.876768 60.638384 35.684848 97.09899 50.553536l-21.462627 36.848484c-38.529293-17.066667-73.309091-37.365657-104.468687-60.767676-35.038384 28.832323-75.377778 50.941414-120.630303 66.327272l-19.911111-36.20202c42.278788-13.058586 78.739394-31.806061 109.511111-56.113131-16.549495-14.868687-30.642424-28.832323-42.40808-41.890909-9.955556 11.765657-20.557576 22.626263-31.676768 32.969697l-25.729293-33.357576c36.460606-32.840404 61.026263-72.274747 73.567677-118.561616l41.244444 5.171717z m-77.058586 293.494949c69.947475 18.230303 132.39596 39.951515 187.474748 65.034344l-21.333334 33.745454c-62.189899-27.668687-125.284848-49.389899-189.155555-65.034343l23.014141-33.745455z m51.846465-68.395959c43.313131 12.282828 83.264646 27.280808 119.854545 44.993939l-20.169697 30.771717c-38.270707-18.230303-78.610101-33.09899-121.147474-44.476767l21.462626-31.288889z m85.074747-151.919192h-89.470707c-1.680808 2.585859-4.008081 6.464646-6.852525 11.507071 13.446465 15.385859 29.866667 30.90101 49.260606 46.674747 18.230303-18.359596 34.00404-37.753535 47.062626-58.181818z" fill="#FFFFFF" p-id="7859"></path></svg>