<?xml version="1.0" standalone="no"?><!DOCTYPE svg PUBLIC "-//W3C//DTD SVG 1.1//EN" "http://www.w3.org/Graphics/SVG/1.1/DTD/svg11.dtd"><svg t="1544405737915" class="icon" style="" viewBox="0 0 1024 1024" version="1.1" xmlns="http://www.w3.org/2000/svg" p-id="9966" xmlns:xlink="http://www.w3.org/1999/xlink" width="32" height="32"><defs><style type="text/css"></style></defs><path d="M751.9 203.2C619.2 70.5 407.4 70.5 274.7 200.6 142 333.3 139.4 547.7 272.1 680.4l237.3 239.9L749.3 683c132.7-132.8 135.3-347.1 2.6-479.8z" fill="#0DB07C" p-id="9967"></path><path d="M509.4 921.7l-0.7-0.7-237.3-239.9c-64.2-64.2-99.2-149.7-98.5-240.6 0.3-44.1 9-87.2 25.8-128 17.4-42.2 42.7-80 75.3-112.6 64.2-63 148.7-97.6 238-97.6h1.3c90.1 0.3 175.1 35.9 239.3 100.1 64.2 64.2 99.2 149.7 98.5 240.6-0.3 44.1-9 87.2-25.8 128-17.4 42.2-42.7 80-75.3 112.6L509.4 921.7z m2.5-818.2c-85 0-170 32.6-236.6 97.8-132.6 132.6-133.7 347.2-2.5 478.4l236.6 239.2 239.2-236.6c132.6-132.6 133.7-347.2 2.5-478.4-66.8-66.9-153-100.4-239.2-100.4z" fill="#FFFFFF" p-id="9968"></path><path d="M504.3 295h142.9v127.6h-25.5v-12.8h-84.2V494c0 12.8 5.1 17.9 17.9 17.9h61.3c12.8 0 20.4-5.1 23-17.9 2.6-10.2 2.6-25.5 5.1-45.9 7.7 2.6 15.3 7.7 25.5 10.2-2.6 23-5.1 38.3-5.1 48.5-2.6 20.4-17.9 28.1-43.4 28.1h-68.9c-25.5 0-38.3-12.8-38.3-40.8V381.8h109.7v-61.3H509.4V295h-5.1z" fill="#FFFFFF" p-id="9969"></path><path d="M665.1 606.4H486.5c-56.1 0-94.4-20.4-114.8-61.3-7.7 30.6-15.3 56.1-28.1 74-5.1-10.2-10.2-23-15.3-33.2 17.9-30.6 28.1-76.6 28.1-140.4l25.5 2.5c0 23-2.6 43.4-5.1 63.8 7.7 17.9 20.4 33.2 35.7 45.9v-130h-81.7v-25.5h71.5v-51h-58.7v-25.5h58.7v-51h28.1v48.5H489v25.5h-58.7v51h66.4v25.5h-56.1v53.6h53.6v25.5h-53.6v66.4c15.3 7.7 35.7 10.2 56.1 10.2 56.1 0 117.4 0 181.2-2.6-7.7 12.8-10.2 20.4-12.8 28.1z" fill="#FFFFFF" p-id="9970"></path></svg>